<svg xmlns="http://www.w3.org/2000/svg" version="1.1" xmlns:xlink="http://www.w3.org/1999/xlink" xmlns:svgjs="http://svgjs.dev/svgjs" width="1500" height="939" viewBox="0 0 1500 939"><g transform="matrix(1,0,0,1,-0.9090909090909918,-1.5145161290323017)"><svg viewBox="0 0 396 248" data-background-color="#ffffff" preserveAspectRatio="xMidYMid meet" height="939" width="1500" xmlns="http://www.w3.org/2000/svg" xmlns:xlink="http://www.w3.org/1999/xlink"><g id="tight-bounds" transform="matrix(1,0,0,1,0.2400000000000091,0.4000000000000057)"><svg viewBox="0 0 395.52 247.2" height="247.2" width="395.52"><g><svg></svg></g><g><svg viewBox="0 0 395.52 247.2" height="247.2" width="395.52"><g transform="matrix(1,0,0,1,75.54432,74.65950029950082)"><svg viewBox="0 0 244.43135999999998 97.88099940099833" height="97.88099940099833" width="244.43135999999998"><g><svg viewBox="0 0 244.43135999999998 97.88099940099833" height="97.88099940099833" width="244.43135999999998"><g><svg viewBox="0 0 244.43135999999998 97.88099940099833" height="97.88099940099833" width="244.43135999999998"><g><svg viewBox="0 0 244.43135999999998 97.88099940099833" height="97.88099940099833" width="244.43135999999998"><g id="textblocktransform"><svg viewBox="0 0 244.43135999999998 97.88099940099833" height="97.88099940099833" width="244.43135999999998" id="textblock"><g><svg viewBox="0 0 244.43135999999998 97.88099940099833" height="97.88099940099833" width="244.43135999999998"><g transform="matrix(1,0,0,1,0,0)"><svg width="244.43135999999998" viewBox="3.9 -35.5 90.14 36.1" height="97.88099940099833" data-palette-color="#2e30ff"><path d="M3.9 0L3.9-35 20.6-35 20.6-32.35 6.7-32.35 6.7-20.65 15.25-20.65 14.1-17.9 6.7-17.9 6.7 0 3.9 0ZM23.85-32.15Q23.2-32.15 22.67-32.68 22.15-33.2 22.15-33.85L22.15-33.85Q22.15-34.5 22.65-35 23.15-35.5 23.85-35.5L23.85-35.5Q24.55-35.5 25.02-35.02 25.5-34.55 25.5-33.85L25.5-33.85Q25.5-33.15 25-32.65 24.5-32.15 23.85-32.15L23.85-32.15ZM22.4 0L22.4-25.05 25.2-25.05 25.2 0 22.4 0ZM48.39 0L48.39-17.15Q48.39-20.2 46.62-21.58 44.84-22.95 42.05-22.95L42.05-22.95Q40.34-22.95 38.59-22.48 36.84-22 35.49-21.25L35.49-21.25 35.49 0 32.7 0 32.7-25.05 35.49-25.05 35.3-23.35Q36.49-24.4 38.34-24.93 40.2-25.45 42.2-25.45L42.2-25.45Q44.95-25.45 46.89-24.55L46.89-24.55Q48.89-23.65 50.02-21.85 51.14-20.05 51.14-17.3L51.14-17.3 51.14 0 48.39 0ZM58.39-17.3Q58.39-22.55 62.64-24.5L62.64-24.5Q64.69-25.45 67.54-25.45L67.54-25.45Q69.39-25.45 71.12-25 72.84-24.55 74.04-23.7L74.04-23.7 74.04-35 76.84-35 76.84 0 74.09 0.25Q70.84 0.6 68.99 0.6L68.99 0.6Q67.14 0.6 65.52 0.25 63.89-0.1 62.29-0.9L62.29-0.9Q60.49-1.8 59.44-3.55 58.39-5.3 58.39-7.85L58.39-7.85 58.39-17.3ZM74.04-21.25Q72.69-22 70.94-22.48 69.19-22.95 67.49-22.95L67.49-22.95Q64.69-22.95 62.92-21.58 61.14-20.2 61.14-17.15L61.14-17.15 61.14-7.8Q61.14-1.95 69.19-1.95L69.19-1.95Q71.09-1.95 74.04-2.4L74.04-2.4 74.04-21.25ZM81.54 0L81.54-25.05 84.34-25.05 84.19-23.3Q86.54-25.5 90.34-25.5L90.34-25.5Q91.69-25.5 94.04-25.05L94.04-25.05 93.29-22.5Q91.69-23 89.94-23L89.94-23Q87.64-23 85.99-22.15 84.34-21.3 84.34-19.6L84.34-19.6 84.34 0 81.54 0Z" opacity="1" transform="matrix(1,0,0,1,0,0)" fill="#2e30ff" class="wordmark-text-0" data-fill-palette-color="primary" id="text-0"></path></svg></g></svg></g></svg></g></svg></g></svg></g></svg></g></svg></g><path d="M170.587 68.66L170.587 16.769 384.249 16.769 384.249 230.431 170.587 230.431 170.587 178.54 179.414 178.54 179.414 221.604 375.422 221.604 375.422 25.596 179.414 25.596 179.414 68.66Z" fill="#2e30ff" stroke="transparent" data-fill-palette-color="tertiary"></path></svg></g><defs></defs></svg><rect width="395.52" height="247.2" fill="none" stroke="none" visibility="hidden"></rect></g></svg></g></svg>